PathFileType	4	(X/Y/Z)	..\data\2014053\dynamic\2014053_C4_04.trc
DataRate	CameraRate	NumFrames	NumMarkers	Units	OrigDataRate	OrigDataStartFrame	OrigNumFrames
100.000000	100.000000	4	52	mm	100.000000	0	181
Frame#	Time	L_IAS			L_IPS			R_IPS			R_IAS			L_FTC			L_FLE			L_FME			L_FAX			L_TTC			L_FAL			L_TAM			L_FCC			L_FM1			L_FM2			L_FM5			R_FTC			R_FLE			R_FME			R_FAX			R_TTC			R_FAL			R_TAM			R_FCC			R_FM1			R_FM2			R_FM5			CV7			TV10			SXS			SJN			L_SIA			L_SRS			L_SAA			L_SAE			L_HLE			L_HME			L_UOA			L_RSP			L_UHE			L_HM2			L_HM5			R_SIA			R_SRS			R_SAA			R_SAE			R_HLE			R_HME			R_UOA			R_RSP			R_UHE			R_HM2			R_HM5			
		X1	Y1	Z1	X2	Y2	Z2	X3	Y3	Z3	X4	Y4	Z4	X5	Y5	Z5	X6	Y6	Z6	X7	Y7	Z7	X8	Y8	Z8	X9	Y9	Z9	X10	Y10	Z10	X11	Y11	Z11	X12	Y12	Z12	X13	Y13	Z13	X14	Y14	Z14	X15	Y15	Z15	X16	Y16	Z16	X17	Y17	Z17	X18	Y18	Z18	X19	Y19	Z19	X20	Y20	Z20	X21	Y21	Z21	X22	Y22	Z22	X23	Y23	Z23	X24	Y24	Z24	X25	Y25	Z25	X26	Y26	Z26	X27	Y27	Z27	X28	Y28	Z28	X29	Y29	Z29	X30	Y30	Z30	X31	Y31	Z31	X32	Y32	Z32	X33	Y33	Z33	X34	Y34	Z34	X35	Y35	Z35	X36	Y36	Z36	X37	Y37	Z37	X38	Y38	Z38	X39	Y39	Z39	X40	Y40	Z40	X41	Y41	Z41	X42	Y42	Z42	X43	Y43	Z43	X44	Y44	Z44	X45	Y45	Z45	X46	Y46	Z46	X47	Y47	Z47	X48	Y48	Z48	X49	Y49	Z49	X50	Y50	Z50	X51	Y51	Z51	X52	Y52	Z52	

1	0	-123.2389144897461	922.2288208007815	-268.9333496093751	-333.4354248046876	947.160095214844	-220.0310821533204	-340.5939331054688	955.1958618164065	-116.3251724243164	-137.0624084472657	921.235290527344	-38.67309188842774	-184.4680328369141	851.8921508789065	-355.5987548828126	-59.06200027465822	472.0885009765626	-310.0662841796876	-69.96394348144533	464.9511108398439	-171.9794921875	-58.64614486694337	405.5357666015626	-312.7706298828126	6.500924110412599	424.6875305175782	-251.0563049316407	78.9189910888672	76.81539154052736	-269.9350585937501	101.4531478881836	101.8813934326172	-186.6576843261719	61.89670562744142	17.37115478515625	-207.1116485595704	235.6167602539063	92.62961578369142	-170.8770446777344	230.6288757324219	108.7433395385742	-228.1003417968751	210.8178405761719	71.69426727294923	-277.4817810058594	-224.4915313720704	848.551452636719	35.03754425048829	-278.2228393554688	458.1024475097657	-51.55297851562501	-297.9750671386719	458.4432373046876	-189.102767944336	-320.8489685058594	404.3413085937501	-54.85613250732423	-272.8663635253907	368.4070129394532	-120.0760116577149	-473.2140197753907	68.55833435058595	-94.19261932373048	-458.9892578125001	73.18479919433595	-182.6912689208985	-531.4094848632814	31.56516456604005	-150.749252319336	-340.3902282714844	14.05995845794678	-181.9689178466797	-321.5265197753907	28.5139446258545	-128.1814880371094	-366.6094665527344	16.06429481506348	-66.90547943115236	-297.0029907226563	1425.02099609375	-164.3009796142578	-340.8640136718751	1193.959228515625	-165.723861694336	-128.8609619140625	1145.352416992188	-171.1686553955078	-185.7151184082032	1350.678344726563	-171.3199768066407	-361.2726745605469	1241.256591796875	-246.4331207275391	-341.0823059082032	1364.703857421875	-250.6152648925782	-287.2606811523438	1363.973388671875	-350.1458435058594	-241.6293640136719	1367.522583007813	-356.4900207519532	-305.9088439941407	1052.212158203125	-389.9620971679689	-305.7849426269532	1041.344604492188	-308.9987182617188	-331.0468444824219	1020.155029296875	-347.1268310546876	-192.9268493652344	821.2121582031252	-374.8267517089844	-251.7364349365235	824.1741333007815	-416.723602294922	-161.0488586425782	742.3493041992189	-393.8547973632814	-252.2665405273438	743.2238159179689	-416.6029663085939	-358.2172851562501	1238.474365234375	-64.87503051757814	-334.2669982910157	1361.811767578125	-70.40296936035158	-268.6163635253907	1363.11181640625	13.45652008056641	-217.3100280761719	1360.614379882813	23.4795093536377	-215.020736694336	1050.199096679688	88.52307128906251	-242.3697967529297	1032.541259765625	11.89332962036133	-242.4648437500001	1008.867736816406	58.4976043701172	-48.76102447509767	854.9227294921877	53.67383956909181	-101.862060546875	841.596130371094	98.36580657958987	3.195963859558106	780.348083496094	52.27367782592775	-81.5213088989258	762.6776123046876	96.15863800048831	
2	0.01	-111.1460723876953	920.3171997070315	-268.9181213378907	-321.0377197265626	945.6704711914065	-220.6053314208985	-329.2528991699219	954.102966308594	-117.0482635498047	-126.3980712890625	919.2261352539065	-38.25152206420899	-172.553955078125	850.3838500976565	-356.1025390625001	-46.88326644897462	470.9588012695314	-309.6498413085938	-57.49050521850587	464.3096923828126	-171.6629791259766	-46.49363708496094	404.3659973144532	-312.1674804687501	18.75587272644043	423.7921447753907	-250.6974029541016	90.93013000488283	75.88352966308595	-268.6609497070313	113.3022994995117	100.9137649536133	-185.4146423339844	73.48014068603517	16.84288978576661	-205.7345733642579	247.1569976806641	91.87859344482423	-168.8260040283203	242.564926147461	107.497184753418	-226.1750640869141	222.9697723388672	70.14774322509767	-275.3905029296876	-214.9923400878907	847.0213623046877	34.71390533447266	-271.0661926269532	457.1441040039064	-52.16003036499025	-289.0316162109376	457.4088439941407	-189.9314880371094	-314.1049804687501	404.0277404785157	-55.69594192504884	-266.3083801269532	367.0670776367188	-120.4565811157227	-472.335418701172	70.78780364990236	-94.28453826904298	-457.898406982422	75.33970642089845	-182.734115600586	-531.2539062500001	35.01758193969727	-150.7874145507813	-340.0826110839844	14.13906002044678	-181.9620513916016	-321.1735229492188	28.53928375244141	-128.0735015869141	-366.5181274414063	16.07346916198731	-67.06746673583986	-285.4874877929688	1423.646606445313	-165.0309600830078	-329.2760009765626	1192.451293945313	-166.5848388671875	-117.3797302246094	1143.567626953125	-171.6450500488282	-174.0334167480469	1349.225219726563	-172.0617218017578	-349.6202087402344	1239.698608398438	-247.3588562011719	-329.3769531250001	1363.30419921875	-251.5894317626954	-275.2809753417969	1362.296875	-351.0675659179688	-229.647201538086	1365.7998046875	-357.2197875976563	-293.4493713378907	1050.352905273438	-390.434539794922	-293.3588867187501	1039.571411132813	-309.4699401855469	-318.6252441406251	1018.534790039063	-347.5485534667969	-182.3733978271485	818.5936279296877	-375.1036682128907	-240.8482818603516	822.207214355469	-417.334442138672	-151.2127380371094	739.3900146484376	-393.8887329101564	-242.3405151367188	741.2030639648439	-416.9484863281251	-347.0695495605469	1236.99755859375	-65.80466461181642	-322.9184265136719	1360.534912109375	-71.2233123779297	-257.2521362304688	1361.305786132813	12.83617115020752	-205.9546356201172	1358.57861328125	22.90985298156739	-203.3729095458985	1048.007934570313	87.12356567382814	-230.8491363525391	1030.394897460938	10.5504732131958	-230.7458953857422	1006.709228515625	57.0718231201172	-37.17456817626954	852.7653808593752	51.56436920166017	-90.59877014160158	839.6013183593752	96.36209869384768	14.67085456848145	778.2429199218752	49.7782554626465	-69.81725311279298	760.6166992187501	94.05051422119142	
3	0.02	-98.9361267089844	918.670104980469	-268.9757080078126	-308.5068054199219	944.488708496094	-221.171615600586	-317.6614379882813	953.2838134765627	-117.7788009643555	-115.4601974487305	917.3916015625002	-37.92531967163087	-160.5591125488282	849.1692504882815	-356.5848999023438	-34.38704299926759	470.1370239257814	-309.1070556640626	-44.31170654296876	464.0841674804689	-171.2901458740235	-34.17868041992188	403.5586853027345	-311.4715576171876	31.27765846252442	422.9125061035157	-250.2833251953126	101.081298828125	74.58188629150392	-267.6457519531251	123.384521484375	99.26197052001956	-184.4098510742188	82.72334289550783	16.09588813781739	-204.7071380615235	256.8125610351563	89.59160614013673	-167.0154571533203	252.7146148681641	104.7873916625977	-224.4602661132813	233.0560760498047	67.3655242919922	-273.5368957519532	-205.2212829589844	845.717468261719	34.28429412841798	-263.4245910644532	456.3360290527345	-52.79145431518556	-279.9071350097657	456.5360107421876	-190.7098236083985	-306.9725036621094	403.904266357422	-56.47768402099611	-259.3980102539063	365.8441772460938	-120.7658462524414	-471.309539794922	73.39303588867189	-94.22265625000001	-456.6075439453126	77.87596893310548	-182.6162261962891	-530.9817504882814	39.02821350097657	-150.7022705078125	-339.8276672363282	14.16701889038086	-181.9392242431641	-320.8200683593751	28.53126525878907	-127.9345855712891	-366.4126281738282	16.01810073852539	-67.17085266113283	-273.9085998535157	1422.473999023438	-165.8446960449219	-317.5041198730469	1191.114501953125	-167.4405364990235	-105.7179565429688	1142.03466796875	-172.2938079833985	-162.3088989257813	1348.004028320313	-172.8591613769532	-337.8601684570313	1238.263549804688	-248.2749328613282	-317.6491088867188	1362.036865234375	-252.5883483886719	-263.3485107421876	1360.773071289063	-352.0431823730469	-217.7520294189454	1364.268310546875	-358.0338439941407	-280.7874145507813	1048.636352539063	-391.0396118164064	-280.8526306152344	1037.958251953125	-310.0591430664063	-306.0261535644532	1017.072448730469	-348.1324462890626	-171.778793334961	816.0732421875002	-375.3890686035157	-229.8528289794922	820.3850097656252	-418.0418090820314	-141.4064636230469	736.4842529296876	-393.8558959960939	-232.3840332031251	739.3541259765626	-417.4016418457032	-335.7227783203126	1235.688720703125	-66.75890350341798	-311.4248046875001	1359.430053710938	-72.11505126953126	-245.7594909667969	1359.74462890625	12.11332511901856	-194.4830780029297	1356.816284179688	22.24946975708008	-191.995834350586	1046.049072265625	85.5496063232422	-219.4030303955079	1028.528686523438	8.971292495727541	-219.2313079833985	1004.808776855469	55.40114212036134	-25.93183135986329	850.6912231445315	49.51004791259767	-79.73251342773439	837.7005004882815	94.33969116210939	25.71886444091798	776.1502685546877	47.39683532714844	-58.62637329101564	758.6649169921876	91.93646240234376	
4	0.03	-86.60022735595705	917.3388671875002	-269.1131591796876	-295.8553161621094	943.663757324219	-221.7595367431641	-305.8130187988282	952.7745361328127	-118.5343322753907	-104.2321701049805	915.7628173828127	-37.7278060913086	-148.4266204833985	848.2879028320315	-357.0557861328126	-21.58336830139161	469.6609802246095	-308.4482116699219	-30.5530128479004	464.2598876953126	-170.8611450195313	-21.68516540527344	403.1413879394532	-310.7073364257813	44.02911376953126	422.0989990234376	-249.7857818603516	109.5690155029297	73.0054168701172	-266.9034423828126	131.8697509765625	97.05691528320315	-183.6425170898438	89.84835815429689	15.21890830993653	-204.0415039062501	264.7542419433594	85.91446685791017	-165.4207000732422	261.2561340332032	100.7601165771485	-222.9324188232422	241.2778320312501	63.48831176757814	-271.9136352539063	-195.1373291015626	844.6497802734377	33.74100875854493	-255.2027282714844	455.6744995117189	-53.43092346191408	-270.5376281738282	455.8171997070314	-191.4211883544922	-299.3697814941407	403.9772949218751	-57.18637847900392	-252.0458374023438	364.7255554199219	-120.9725418090821	-470.0786132812501	76.42549133300783	-93.9914016723633	-455.0390930175782	80.81541442871095	-182.3189239501953	-530.5025634765626	43.66390991210938	-150.4962005615235	-339.6751098632813	14.12876701354981	-181.9066162109375	-320.5088500976563	28.4730453491211	-127.7748031616211	-366.3241882324219	15.90160560607911	-67.22296142578126	-262.2687683105469	1421.524047851563	-166.7401428222657	-305.5514526367188	1189.977416992188	-168.2911224365235	-93.87817382812501	1140.792602539063	-173.1069946289063	-150.5382690429688	1347.04541015625	-173.7102966308594	-325.9871215820313	1236.987182617188	-249.1858215332032	-305.8908386230469	1360.932983398438	-253.6141815185547	-251.4480438232422	1359.44091796875	-353.0692749023438	-205.9204254150391	1362.966430664063	-358.9293518066407	-267.9537658691407	1047.111938476563	-391.7601013183595	-268.2818908691407	1036.556396484375	-310.7443542480469	-293.2653198242188	1015.806884765625	-348.8564758300782	-161.1228179931641	813.7197875976565	-375.6917419433594	-218.7518157958985	818.7543945312502	-418.8296203613282	-131.6105041503907	733.7042236328126	-393.7602539062501	-222.3706970214844	737.7343750000001	-417.9660949707032	-324.1757202148438	1234.573364257813	-67.73450469970705	-299.7924194335938	1358.51708984375	-73.07596588134767	-234.1445312500001	1358.461059570313	11.28959560394287	-182.9021911621094	1355.371215820313	21.50181007385254	-180.8890228271485	1044.363159179688	83.79663085937501	-208.0200347900391	1026.992431640625	7.144600391387941	-207.9245300292969	1003.211730957031	53.47322082519533	-15.04461097717286	848.7423095703127	47.53375244140626	-69.24764251708986	835.9193115234377	92.31105041503908	36.32814407348634	774.1033325195315	45.15789413452149	-47.98148727416993	756.8572387695314	89.82114410400392	
